<?xml version="1.0" encoding="UTF-8" standalone="no"?>
<!-- Uploaded to: SVG Repo, www.svgrepo.com, Generator: SVG Repo Mixer Tools -->

<svg
   width="100"
   height="100"
   viewBox="0 0 64 64"
   version="1.1"
   id="svg4"
   sodipodi:docname="plant.svg"
   inkscape:version="1.1 (c68e22c387, 2021-05-23)"
   xmlns:inkscape="http://www.inkscape.org/namespaces/inkscape"
   xmlns:sodipodi="http://sodipodi.sourceforge.net/DTD/sodipodi-0.dtd"
   xmlns="http://www.w3.org/2000/svg"
   xmlns:svg="http://www.w3.org/2000/svg">
  <defs
     id="defs8" />
  <sodipodi:namedview
     id="namedview6"
     pagecolor="#ffffff"
     bordercolor="#666666"
     borderopacity="1.0"
     inkscape:pageshadow="2"
     inkscape:pageopacity="0.0"
     inkscape:pagecheckerboard="0"
     showgrid="false"
     inkscape:zoom="0.97375"
     inkscape:cx="399.48652"
     inkscape:cy="400"
     inkscape:window-width="2400"
     inkscape:window-height="1271"
     inkscape:window-x="2391"
     inkscape:window-y="-9"
     inkscape:window-maximized="1"
     inkscape:current-layer="svg4" />
  <path
     style="fill:#ffffff;stroke-width:0.313545"
     d="m 31.151626,56.878184 c -1.26898,-0.33095 -1.48508,-1.59156 -1.48508,-8.66301 v -6.71629 l -2.2061,-0.21738 c -9.89018,-0.97456 -17.34569,-7.26853 -19.7512306,-16.67408 -0.43564,-1.70336 -0.61794,-3.45993 -0.61794,-5.95428 0,-3.29205 0.0528,-3.59932 0.75916,-4.41787 0.7526699,-0.87221 0.7895299,-0.87943 4.3112506,-0.84404 4.18339,0.042 6.54585,0.58936 9.96549,2.30872 4.505,2.26507 7.79704,5.66119 9.93606,10.25019 1.88169,4.03694 1.98319,4.95742 1.98831,18.03171 l 0.004,11.81358 -0.82615,0.64985 c -0.82933,0.65235 -1.05594,0.69955 -2.07841,0.4329 z m -1.48508,-22.13568 c 0,-4.18849 -1.62237,-8.04899 -4.78749,-11.392 -3.21539,-3.39612 -7.66617,-5.43071 -11.9088,-5.44392 l -1.48934,-0.004 0.005,1.64611 c 0.0151,4.57004 1.75707,8.65158 5.13333,12.02784 3.28682,3.28682 7.20998,5.04615 11.40075,5.11266 l 1.64612,0.0261 z m 8.08027,-5.15779 c -0.56482,-2.36066 -0.53733,-2.41248 1.44772,-2.72961 2.10525,-0.33634 5.66793,-2.24642 7.70131,-4.12898 2.86281,-2.65046 4.75504,-6.16191 5.2444,-9.73213 l 0.18681,-1.36295 h -1.43814 c -4.06359,0 -8.46257,1.90563 -11.51083,4.98648 -1.12553,1.13756 -2.51362,2.95789 -3.08465,4.04519 l -1.03822,1.9769 -1.42071,-2.11837 -1.42071,-2.11836 0.58603,-1.11271 c 0.32232,-0.612 1.7148,-2.25533 3.0944,-3.65185 4.12822,-4.1788432 8.67635,-6.1918192 14.91335,-6.6005552 3.58264,-0.234782 4.76485,0.0998 5.52129,1.562587 0.97685,1.8890342 0.002,7.1014982 -2.14896,11.4964182 -1.68292,3.43776 -5.54659,7.42071 -8.88443,9.1587 -1.75795,0.91535 -6.17316,2.44248 -7.06165,2.44248 -0.0998,0 -0.40891,-0.95096 -0.68701,-2.11324 z"
     id="path917" />
</svg>
